Codecs used in the video :
    Stream #0:0(und): Video: h264 (High) (avc1 / 0x31637661), yuv420p, 1920x1080 [SAR 1:1 DAR 16:9], 2998 kb/s, 30 fps, 30 tbr, 30k tbn, 60 tbc (default)
    Stream #0:1(und): Audio: mp3 (mp4a / 0x6134706D), 48000 Hz, stereo, fltp, 160 kb/s (default)
    Stream #0:2(und): Audio: ac3 (ac-3 / 0x332D6361), 48000 Hz, 5.1(side), fltp, 320 kb/s (default)
Other relevant information:
  Duration: 00:10:34.53, start: 0.000000, bitrate: 3481 kb/s
